<?xml version="1.0" encoding="UTF-8" standalone="no"?>
<svg
   xmlns:dc="http://purl.org/dc/elements/1.1/"
   xmlns:cc="http://creativecommons.org/ns#"
   xmlns:rdf="http://www.w3.org/1999/02/22-rdf-syntax-ns#"
   xmlns:svg="http://www.w3.org/2000/svg"
   xmlns="http://www.w3.org/2000/svg"
   xmlns:sodipodi="http://sodipodi.sourceforge.net/DTD/sodipodi-0.dtd"
   xmlns:inkscape="http://www.inkscape.org/namespaces/inkscape"
   width="210mm"
   height="297mm"
   viewBox="0 0 210 297"
   version="1.1"
   id="svg8"
   inkscape:version="1.0.1 (3bc2e813f5, 2020-09-07)"
   sodipodi:docname="demo.svg">
  <defs
     id="defs2" />
  <sodipodi:namedview
     id="base"
     pagecolor="#ffffff"
     bordercolor="#666666"
     borderopacity="1.0"
     inkscape:pageopacity="0.0"
     inkscape:pageshadow="2"
     inkscape:zoom="0.9899495"
     inkscape:cx="-371.71723"
     inkscape:cy="1368.4734"
     inkscape:document-units="mm"
     inkscape:current-layer="layer2"
     inkscape:document-rotation="0"
     showgrid="false"
     inkscape:window-width="2536"
     inkscape:window-height="1395"
     inkscape:window-x="10"
     inkscape:window-y="31"
     inkscape:window-maximized="1"
     inkscape:snap-page="true" />
  <metadata
     id="metadata5">
    <rdf:RDF>
      <cc:Work
         rdf:about="">
        <dc:format>image/svg+xml</dc:format>
        <dc:type
           rdf:resource="http://purl.org/dc/dcmitype/StillImage" />
        <dc:title />
      </cc:Work>
    </rdf:RDF>
  </metadata>
  <g
     inkscape:label="0,5, Rect"
     inkscape:groupmode="layer"
     id="layer1"
     style="display:inline">
    <rect
       style="opacity:0.619;fill:none;fill-opacity:1;stroke:#000000;stroke-width:0.3;stroke-miterlimit:4;stroke-dasharray:none;stroke-dashoffset:0;stroke-opacity:1"
       id="rect10"
       width="145.94893"
       height="86.08075"
       x="0"
       y="210.91927" />
    <text
       xml:space="preserve"
       style="font-style:normal;font-weight:normal;font-size:10.5833px;line-height:1.25;font-family:sans-serif;letter-spacing:0px;word-spacing:0px;fill:#000000;fill-opacity:1;stroke:none;stroke-width:0.264583"
       x="85.97905"
       y="247.3922"
       id="text897"><tspan
         sodipodi:role="line"
         id="tspan895"
         x="85.97905"
         y="247.3922"
         style="stroke-width:0.264583" /></text>
  </g>
  <g
     inkscape:groupmode="layer"
     id="layer2"
     inkscape:label="5,45, Cylinder">
    <path
       id="path854"
       style="opacity:0.619;fill:#000000;fill-opacity:0.267671;stroke:#000000;stroke-width:0.308036;stroke-miterlimit:4;stroke-dasharray:none;stroke-dashoffset:0;stroke-opacity:1"
       d="m 105.88187,227.76573 a 25.191093,24.663063 0 0 0 -25.19123,24.66309 25.191093,24.663063 0 0 0 25.19123,24.6631 25.191093,24.663063 0 0 0 25.19122,-24.6631 25.191093,24.663063 0 0 0 -25.19122,-24.66309 z m 2.51095,11.99927 3.24322,2.61379 4.07572,-0.85731 1.788,3.76204 4.04368,0.99633 -0.0212,4.1646 3.21117,2.65255 -1.82625,3.74344 1.74253,3.78271 -3.26956,2.58021 -0.0718,4.16409 -4.06538,0.90589 -1.87121,3.72121 -4.05556,-0.94774 -3.30057,2.54041 -3.2427,-2.61327 -4.07624,0.85679 -1.787481,-3.76153 -4.044202,-0.99632 0.0217,-4.16512 -3.21169,-2.65255 1.826763,-3.74293 -1.74253,-3.78323 3.269567,-2.57968 0.07132,-4.16461 4.065382,-0.90589 1.871201,-3.72121 4.05609,0.94774 z" />
  </g>
  <g
     inkscape:groupmode="layer"
     id="layer3"
     inkscape:label="45,48, Text">
    <g
       aria-label="Test"
       id="text884"
       style="font-style:normal;font-weight:normal;font-size:10.5833px;line-height:1.25;font-family:sans-serif;letter-spacing:0px;word-spacing:0px;fill:#000000;fill-opacity:1;stroke:none;stroke-width:0.264583"
       transform="translate(-31.720585,136.79092)">
      <path
         d="m 126.57539,94.298474 h 6.52671 v 0.878496 h -2.73884 v 6.83677 h -1.04903 v -6.83677 h -2.73884 z"
         style="stroke-width:0.264583"
         id="path886" />
      <path
         d="m 137.2207,98.882159 v 0.465086 h -4.37181 q 0.062,0.981845 0.5891,1.498615 0.53227,0.51159 1.47795,0.51159 0.54776,0 1.05936,-0.13436 0.51676,-0.13435 1.02319,-0.40307 v 0.89917 q -0.5116,0.21704 -1.04903,0.33072 -0.53743,0.11369 -1.09037,0.11369 -1.38492,0 -2.19624,-0.80615 -0.80615,-0.80615 -0.80615,-2.180737 0,-1.421097 0.76481,-2.253085 0.76998,-0.837155 2.07222,-0.837155 1.16788,0 1.84484,0.754473 0.68213,0.749306 0.68213,2.041213 z m -0.95085,-0.279052 q -0.0103,-0.780312 -0.43924,-1.245398 -0.42375,-0.465087 -1.12655,-0.465087 -0.79581,0 -1.2764,0.449584 -0.47542,0.449583 -0.54777,1.266068 z"
         style="stroke-width:0.264583"
         id="path888" />
      <path
         d="m 142.47101,96.39653 v 0.899167 q -0.40308,-0.206705 -0.83716,-0.310057 -0.43408,-0.103353 -0.89917,-0.103353 -0.70796,0 -1.06453,0.21704 -0.3514,0.217041 -0.3514,0.651121 0,0.330729 0.25322,0.521931 0.25321,0.186034 1.01802,0.356566 l 0.32556,0.07235 q 1.01286,0.21704 1.4366,0.614947 0.42891,0.39274 0.42891,1.100698 0,0.80615 -0.64078,1.27641 -0.63562,0.47025 -1.75183,0.47025 -0.46508,0 -0.97151,-0.093 -0.50126,-0.0879 -1.05936,-0.26871 v -0.98185 q 0.52709,0.27388 1.03869,0.41341 0.51159,0.13436 1.01285,0.13436 0.67179,0 1.03353,-0.22738 0.36173,-0.23254 0.36173,-0.65112 0,-0.38757 -0.26355,-0.594273 -0.25838,-0.206706 -1.14204,-0.397908 l -0.33073,-0.07751 q -0.88366,-0.186035 -1.2764,-0.568439 -0.39274,-0.387572 -0.39274,-1.059364 0,-0.816485 0.57877,-1.2609 0.57877,-0.444416 1.64331,-0.444416 0.52709,0 0.99218,0.07751 0.46509,0.07751 0.85783,0.232543 z"
         style="stroke-width:0.264583"
         id="path890" />
      <path
         d="m 145.23569,94.582693 v 1.643306 h 1.95853 v 0.73897 h -1.95853 v 3.141921 q 0,0.70796 0.1912,0.9095 0.19637,0.20154 0.79065,0.20154 h 0.97668 v 0.79581 h -0.97668 q -1.10071,0 -1.51929,-0.40824 -0.41857,-0.41341 -0.41857,-1.49861 v -3.141921 h -0.69763 v -0.73897 h 0.69763 v -1.643306 z"
         style="stroke-width:0.264583"
         id="path892" />
    </g>
    <g
       aria-label="12"
       transform="matrix(0.52167906,-0.91821575,0.70063879,0.68368171,0,0)"
       id="text901"
       style="font-style:normal;font-weight:normal;font-size:7.45493px;line-height:1.25;font-family:sans-serif;letter-spacing:0px;word-spacing:0px;fill:#000000;fill-opacity:1;stroke:none;stroke-width:0.186374">
      <path
         d="m -115.12218,209.59537 h 1.20123 v -4.14608 l -1.3068,0.26209 v -0.66978 l 1.29952,-0.26209 h 0.7353 v 4.81586 h 1.20124 v 0.61882 h -3.13049 z"
         style="stroke-width:0.186374"
         id="path903" />
      <path
         d="m -109.87315,209.59537 h 2.56627 v 0.61882 h -3.45082 v -0.61882 q 0.41861,-0.43317 1.13935,-1.16119 0.72438,-0.73166 0.91003,-0.94279 0.35309,-0.39677 0.49141,-0.66978 0.14197,-0.27665 0.14197,-0.54237 0,-0.43318 -0.30577,-0.70618 -0.30213,-0.27301 -0.7899,-0.27301 -0.34581,0 -0.73167,0.12012 -0.38221,0.12013 -0.81902,0.36401 v -0.74258 q 0.44409,-0.17836 0.82995,-0.26937 0.38585,-0.091 0.70617,-0.091 0.84451,0 1.34684,0.42225 0.50234,0.42226 0.50234,1.12844 0,0.33488 -0.12741,0.63701 -0.12376,0.29849 -0.45501,0.70618 -0.091,0.10557 -0.57878,0.61154 -0.48777,0.50233 -1.37595,1.40872 z"
         style="stroke-width:0.186374"
         id="path905" />
    </g>
  </g>
</svg>
